<svg width="132" height="100" viewBox="0 0 132 100" fill="none" xmlns="http://www.w3.org/2000/svg">
<path d="M9.29085 26.5307H8.33465V21.0277C8.33465 20.5927 8.36106 20.0609 8.41389 19.4323H8.391C8.29943 19.8021 8.21666 20.068 8.14446 20.2282L5.341 26.5325H4.87259L2.07441 20.274C1.99517 20.0909 1.9124 19.8109 1.82788 19.4323H1.80498C1.83492 19.7598 1.85077 20.2969 1.85077 21.04V26.5325H0.9245V18.3281H2.19416L4.71058 24.0495C4.90428 24.488 5.03107 24.8155 5.08742 25.0339H5.12088C5.28465 24.5831 5.41673 24.2485 5.51534 24.0266L8.08459 18.3281H9.28557V26.5325L9.29085 26.5307Z" fill="#39B54A"/>
<path d="M18.7631 26.5306H17.8016V20.6032C17.8016 20.0696 17.821 19.6928 17.858 19.4762H17.8245C17.7523 19.6628 17.6643 19.8354 17.5621 19.9904L13.3411 26.5289H12.1507V18.3245H13.1122V24.1022C13.1122 24.7203 13.0963 25.1218 13.0664 25.3085H13.0893C13.1738 25.1412 13.2795 24.9581 13.4098 24.7591L17.5287 18.3228H18.7649V26.5271L18.7631 26.5306Z" fill="#39B54A"/>
<path d="M27.7951 26.5308H26.8336V22.7887H22.5897V26.5308H21.6282V18.3264H22.5897V21.9241H26.8336V18.3264H27.7951V26.5308Z" fill="#39B54A"/>
<path d="M37.2621 26.5306H36.3006V20.6032C36.3006 20.0696 36.32 19.6928 36.357 19.4762H36.3235C36.2513 19.6628 36.1632 19.8354 36.0611 19.9904L31.8401 26.5289H30.6497V18.3245H31.6111V24.1022C31.6111 24.7203 31.5953 25.1218 31.5654 25.3085H31.5883C31.6728 25.1412 31.7784 24.9581 31.9087 24.7591L36.0276 18.3228H37.2638V26.5271L37.2621 26.5306Z" fill="#39B54A"/>
<path d="M6.58954 37.1423H5.41673L3.52898 34.0007C3.47263 33.9056 3.40923 33.77 3.34055 33.5939H3.31766C3.27892 33.682 3.21552 33.8176 3.12395 34.0007L1.17809 37.1423H0L2.74535 33.0181L0.216599 28.9397H1.39469L3.07113 31.8224C3.18207 32.0126 3.27892 32.2045 3.36345 32.3947H3.38634C3.50784 32.1429 3.61526 31.9439 3.70683 31.7995L5.45195 28.9397H6.55608L3.97626 33.0075L6.5913 37.144L6.58954 37.1423Z" fill="#39B54A"/>
<path d="M11.1434 37.2798C9.97938 37.2798 9.04783 36.8959 8.34873 36.1299C7.64963 35.3639 7.29919 34.3654 7.29919 33.138C7.29919 31.819 7.65491 30.766 8.3681 29.9806C9.08129 29.1952 10.0516 28.8025 11.2807 28.8025C12.413 28.8025 13.3252 29.1846 14.0173 29.9471C14.7093 30.7096 15.0563 31.7081 15.0563 32.939C15.0563 34.2773 14.7023 35.3357 13.9926 36.114C13.283 36.8924 12.3338 37.2815 11.1434 37.2815V37.2798ZM14.0261 32.6115C13.9574 31.6764 13.6757 30.9526 13.1826 30.4402C12.6895 29.9277 12.0309 29.6706 11.2121 29.6706C10.3932 29.6706 9.76102 29.9383 9.23802 30.4719C8.71501 31.0055 8.41213 31.7187 8.3276 32.6115H14.0261ZM14.0261 33.499H8.3276C8.40684 34.3918 8.70268 35.1015 9.21513 35.6262C9.72581 36.1528 10.3686 36.4151 11.1434 36.4151C11.9816 36.4151 12.6543 36.1598 13.1597 35.6509C13.6651 35.142 13.9539 34.4235 14.0261 33.4972V33.499Z" fill="#39B54A"/>
<path d="M21.5207 29.8079H19.1522V37.1423H18.1907V29.8079H15.8275V28.938H21.519V29.8079H21.5207Z" fill="#39B54A"/>
<path d="M26.1151 37.2798C24.9511 37.2798 24.0196 36.8959 23.3205 36.1299C22.6214 35.3639 22.2709 34.3654 22.2709 33.138C22.2709 31.819 22.6266 30.766 23.3398 29.9806C24.053 29.1952 25.0233 28.8025 26.2525 28.8025C27.3848 28.8025 28.297 29.1846 28.989 29.9471C29.6811 30.7096 30.028 31.7081 30.028 32.939C30.028 34.2773 29.674 35.3357 28.9644 36.114C28.2547 36.8924 27.3055 37.2815 26.1151 37.2815V37.2798ZM28.9978 32.6115C28.9291 31.6764 28.6474 30.9526 28.1543 30.4402C27.6613 29.9277 27.0027 29.6706 26.1838 29.6706C25.365 29.6706 24.7328 29.9383 24.2098 30.4719C23.6868 31.0055 23.3839 31.7187 23.2993 32.6115H28.9978ZM28.9978 33.499H23.2993C23.3786 34.3918 23.6744 35.1015 24.1869 35.6262C24.6975 36.1528 25.3403 36.4151 26.1151 36.4151C26.9533 36.4151 27.626 36.1598 28.1314 35.6509C28.6368 35.142 28.9256 34.4235 28.9978 33.4972V33.499Z" fill="#39B54A"/>
<path d="M37.1616 37.1423H36.2002V33.4531C35.3267 33.9145 34.5149 34.1452 33.763 34.1452C33.011 34.1452 32.4916 33.9585 32.1006 33.5869C31.7097 33.2154 31.5142 32.6941 31.5142 32.0214V28.938H32.4757V31.9757C32.4757 32.8561 32.9441 33.2964 33.8827 33.2964C34.5607 33.2964 35.3338 33.0868 36.2002 32.6677V28.938H37.1616V37.1423Z" fill="#39B54A"/>
<path d="M37.2621 75.0049H29.9875V55.4388C29.9875 53.3257 30.0791 50.9924 30.2604 48.4372H30.0773C29.6969 50.4447 29.3553 51.8887 29.0507 52.7709L21.3887 75.0049H15.368L7.56863 52.9981C7.35556 52.4047 7.01393 50.885 6.54199 48.4372H6.33596C6.53319 51.6598 6.6318 54.4879 6.6318 56.9198V75.0032H0V42.302H10.7859L17.467 61.6867C17.9988 63.2381 18.3863 64.7966 18.6293 66.3621H18.7666C19.1769 64.5536 19.6101 62.9793 20.0662 61.6409L26.7473 42.302H37.2603V75.0032L37.2621 75.0049Z" fill="white"/>
<path d="M61.4031 75.0049H54.037V42.3037H61.4031V75.0049Z" fill="white"/>
<path d="M107.597 75.0049H100.162L86.6853 54.4579C85.8947 53.2569 85.347 52.3518 85.0441 51.7443H84.9526C85.0741 52.8994 85.1357 54.6639 85.1357 57.0342V75.0049H78.1799V42.3037H86.1165L99.0931 62.2114C99.6865 63.1095 100.234 63.9988 100.734 64.8793H100.826C100.704 64.1186 100.643 62.6217 100.643 60.3871V42.3037H107.599V75.0049H107.597Z" fill="white"/>
<path d="M131.784 75.0049H124.418V42.3037H131.784V75.0049Z" fill="white"/>
<path d="M16.3999 99.6549H10.7859L5.0346 91.0842C4.92542 90.9187 4.75109 90.5577 4.5116 89.9977H4.44292V99.6549H0V79.9268H4.44292V89.2546H4.5116C4.62078 88.9975 4.80568 88.6312 5.06102 88.154L10.5094 79.9268H15.8064L8.9281 89.3374L16.3981 99.6549H16.3999Z" fill="#39B54A"/>
<path d="M35.3567 99.6549H30.8997V91.6213H22.727V99.6549H18.2841V79.9268H22.727V87.7965H30.8997V79.9268H35.3567V99.6549Z" fill="#39B54A"/>
<path d="M55.9512 91.1124C55.9512 97.0381 53.19 100 47.6694 100C42.1488 100 39.6359 97.1067 39.6359 91.3185V79.9268H44.0929V91.373C44.0929 94.5639 45.3396 96.1611 47.8349 96.1611C50.3302 96.1611 51.5083 94.6203 51.5083 91.5386V79.9268H55.9512V91.1124Z" fill="#39B54A"/>
<path d="M74.098 83.5455H68.4717V99.6549H64.0147V83.5455H58.4148V79.9268H74.098V83.5455Z" fill="#39B54A"/>
<path d="M92.8364 91.1124C92.8364 97.0381 90.0752 100 84.5546 100C79.034 100 76.5211 97.1067 76.5211 91.3185V79.9268H80.9781V91.373C80.9781 94.5639 82.2248 96.1611 84.7201 96.1611C87.2154 96.1611 88.3935 94.6203 88.3935 91.5386V79.9268H92.8364V91.1124Z" fill="#39B54A"/>
<path d="M111.272 98.954C109.831 99.6513 107.953 100 105.632 100C102.604 100 100.225 99.1107 98.4908 97.3303C96.758 95.5518 95.8899 93.1797 95.8899 90.2178C95.8899 87.0621 96.8637 84.5035 98.8131 82.5417C100.762 80.5783 103.291 79.5974 106.401 79.5974C108.328 79.5974 109.951 79.8404 111.272 80.3264V84.6056C109.951 83.8167 108.447 83.4222 106.76 83.4222C104.908 83.4222 103.413 84.0051 102.275 85.1691C101.138 86.3349 100.569 87.9109 100.569 89.9026C100.569 91.8942 101.106 93.3312 102.178 94.4635C103.251 95.5958 104.696 96.1628 106.512 96.1628C108.328 96.1628 109.831 95.7402 111.272 94.8967V98.9557V98.954Z" fill="#39B54A"/>
<path d="M131.784 99.6549H127.327V91.6213H119.154V99.6549H114.711V79.9268H119.154V87.7965H127.327V79.9268H131.784V99.6549Z" fill="#39B54A"/>
<path d="M131.623 37.2797H124.58C124.58 30.2869 117.536 25.8774 110.08 21.2108C103.763 17.2575 97.2652 13.1879 95.4321 7.04563H90.4168C88.603 13.4045 81.9889 17.504 75.5631 21.4873C68.2005 26.0517 61.2447 30.3626 61.2447 37.2797H54.2008C54.2008 32.3155 56.203 27.9254 60.3237 23.8593C63.629 20.598 67.8096 18.0059 71.851 15.5C78.0249 11.6734 83.8572 8.05818 83.8572 3.52193V0H101.969V3.52193C101.969 7.82045 107.725 11.4234 113.818 15.2394C117.891 17.7893 122.104 20.4254 125.441 23.7343C129.602 27.8585 131.623 32.2891 131.623 37.2779V37.2797Z" fill="white"/>
</svg>
