<svg width="274" height="60" viewBox="0 0 274 60" fill="none" xmlns="http://www.w3.org/2000/svg">
<g clip-path="url(#clip0_126_1170)">
<path d="M42.2093 36.1628C41.1047 38.1977 39.5349 39.7675 37.6163 41.0465C35.6977 42.2675 33.314 42.907 30.5814 42.907C28.7209 42.907 26.9767 42.5582 25.3488 41.9186C23.7209 41.2791 22.3837 40.3489 21.2209 39.1861C20.0581 38.0233 19.1279 36.6279 18.4884 35.0582C17.8488 33.4303 17.5 31.7442 17.5 29.7675C17.5 27.9651 17.8488 26.2791 18.4302 24.7093C19.0698 23.0814 19.9419 21.6861 21.1047 20.5233C22.2093 19.3605 23.6047 18.4303 25.1744 17.6744C26.7442 16.9768 28.4884 16.6279 30.3488 16.6279C32.3256 16.6279 34.1279 16.9768 35.6395 17.6163C37.2093 18.2558 38.4884 19.1861 39.4767 20.3489C40.5233 21.5117 41.3372 22.907 41.8023 24.4186C42.3256 25.9884 42.6163 27.7326 42.6163 29.5349V30.2326C42.5581 30.407 42.5581 30.5814 42.5581 30.814C42.5 30.9303 42.5 31.1047 42.5 31.2791H23.8953C24.0116 32.2675 24.3023 33.1396 24.7674 33.8954C25.1744 34.593 25.6977 35.2326 26.3372 35.7558C26.9767 36.221 27.6744 36.6279 28.3721 36.8023C29.1279 37.0349 29.8837 37.1512 30.6395 37.1512C32.1512 37.1512 33.4302 36.8024 34.4186 36.1047C35 35.7558 35.4651 35.2326 35.8721 34.7675C36.5116 34.0698 37.5 33.8954 38.2558 34.2442L42.2093 36.1628ZM36.2209 26.6279C36.1628 26.221 36.0465 25.6977 35.814 25.1744C35.5814 24.6512 35.1744 24.1279 34.7093 23.6628C34.2442 23.1977 33.6047 22.7907 32.907 22.5C32.2093 22.2093 31.2791 22.0349 30.2907 22.0349C28.8953 22.0349 27.6744 22.4419 26.5698 23.2558C25.4651 24.0698 24.7093 25.1744 24.3023 26.6279H36.2209Z" fill="white"/>
<path d="M102.384 19.4187C101.686 18.5466 100.756 17.8489 99.6512 17.3838C98.5465 16.9187 97.2674 16.628 95.7558 16.628C93.7209 16.628 92.0349 17.0349 90.6395 17.9652C89.2442 18.8373 88.1395 19.9419 87.3256 21.1628C86.8023 19.8838 85.8721 18.8373 84.593 17.907C83.314 16.9768 81.7442 16.5698 79.8256 16.5698C78.1977 16.5698 76.7442 16.9187 75.407 17.6745C74.0698 18.4303 73.0814 19.3605 72.2674 20.5815H71.8605V19.3605C71.8605 18.2559 70.9884 17.3838 69.8837 17.3838H65.6977V42.0349H72.2674V30.1745C72.2674 29.128 72.3837 28.1396 72.6163 27.2675C72.8488 26.3954 73.1977 25.5815 73.6628 24.9419C74.0698 24.3024 74.6512 23.7791 75.2907 23.3721C75.9302 23.0233 76.6279 22.7908 77.5 22.7908C80.3488 22.7908 81.8023 24.4768 81.8023 27.8489V42.2094H88.3721V30.1745C88.3721 29.128 88.4884 28.1396 88.7209 27.2675C88.9535 26.3954 89.3605 25.5815 89.7674 24.9419C90.2326 24.3024 90.814 23.7791 91.4535 23.3721C92.093 23.0233 92.907 22.7908 93.7791 22.7908C96.5116 22.7908 97.907 24.4768 97.907 27.8489V42.2094H104.477V26.5698C104.477 25.1163 104.302 23.7791 103.895 22.5582C103.663 21.3373 103.081 20.2908 102.384 19.4187Z" fill="white"/>
<path d="M131.105 20.3489C129.942 19.1861 128.547 18.2558 126.977 17.6163C125.349 16.9768 123.663 16.6279 121.686 16.6279C119.767 16.6279 118.023 16.9768 116.395 17.6163C114.767 18.2558 113.43 19.1861 112.267 20.3489C111.105 21.5117 110.174 22.907 109.535 24.4768C108.895 26.1047 108.547 27.8489 108.547 29.7675C108.547 31.6861 108.895 33.4303 109.535 35.0582C110.174 36.6861 111.105 38.0814 112.267 39.1861C113.43 40.3489 114.826 41.2791 116.395 41.9186C118.023 42.5582 119.709 42.907 121.686 42.907C123.663 42.907 125.349 42.5582 126.977 41.9186C128.605 41.2791 129.942 40.3489 131.105 39.1861C132.267 38.0233 133.198 36.6279 133.837 35.0582C134.477 33.4303 134.826 31.6861 134.826 29.7675C134.826 27.8489 134.477 26.1047 133.837 24.4768C133.14 22.907 132.267 21.5117 131.105 20.3489ZM127.674 32.7326C127.326 33.6047 126.802 34.3605 126.221 34.9419C125.581 35.5814 124.884 36.0465 124.128 36.2791C123.314 36.6279 122.5 36.7442 121.686 36.7442C120.814 36.7442 120 36.6279 119.244 36.2791C118.488 35.9303 117.791 35.4651 117.151 34.9419C116.512 34.3024 116.047 33.6047 115.698 32.7326C115.349 31.8605 115.174 30.8721 115.174 29.7675C115.174 28.6628 115.349 27.6744 115.698 26.8023C116.047 25.9303 116.57 25.1744 117.151 24.593C117.791 23.9535 118.43 23.4884 119.244 23.2558C120 22.907 120.872 22.7907 121.686 22.7907C122.5 22.7907 123.314 22.907 124.128 23.2558C124.942 23.6047 125.64 24.0698 126.221 24.593C126.86 25.2326 127.326 25.9303 127.674 26.8023C128.023 27.6744 128.198 28.6628 128.198 29.7675C128.198 30.9303 128.023 31.9186 127.674 32.7326Z" fill="white"/>
<path d="M159.709 19.5349C158.954 18.6046 157.965 17.907 156.86 17.4418C155.698 16.9186 154.302 16.686 152.791 16.686C151.105 16.686 149.651 17.0349 148.314 17.7907C146.977 18.4884 145.988 19.4767 145.233 20.7558H144.826V19.5349C144.826 18.4302 143.953 17.5581 142.849 17.5581H138.605V42.2093H145.174V30C145.174 29.0116 145.291 28.0232 145.523 27.1512C145.756 26.2791 146.163 25.5232 146.628 24.8256C147.093 24.186 147.733 23.6628 148.372 23.2558C149.07 22.907 149.884 22.6744 150.756 22.6744C152.267 22.6744 153.43 23.0814 154.186 23.9535C155 24.8256 155.349 26.1046 155.349 27.907V42.093H161.919V27.2093C161.919 25.5814 161.744 24.186 161.337 22.907C161.047 21.5698 160.465 20.4651 159.709 19.5349Z" fill="white"/>
<path d="M185.291 20.1163H184.884C184.128 19.0116 183.081 18.1977 181.802 17.5582C180.523 16.9186 179.07 16.6279 177.326 16.6279C175.872 16.6279 174.419 16.9186 173.023 17.5C171.628 18.1396 170.407 18.9535 169.302 20.1163C168.198 21.221 167.384 22.5582 166.686 24.1861C166.047 25.814 165.698 27.5 165.698 29.4768C165.698 31.4535 166.047 33.1396 166.686 34.7093C167.326 36.2791 168.256 37.6163 169.302 38.721C170.407 39.8256 171.628 40.6977 173.023 41.3372C174.419 41.9768 175.872 42.2093 177.326 42.2093C179.012 42.2093 180.523 41.8605 181.802 41.2791C183.081 40.6977 184.07 39.8256 184.884 38.721H185.291V40.407C185.291 42.7326 184.651 44.6512 183.43 45.9884C182.209 47.3256 180.581 48.0233 178.488 48.0233C177.151 48.0233 175.988 47.6744 174.884 46.9186C174.244 46.5117 173.721 45.9303 173.256 45.2907C172.733 44.4768 171.744 44.1861 170.872 44.5349L166.279 46.3954C166.57 47.2675 167.093 48.1396 167.733 49.0117C168.372 49.8837 169.244 50.6977 170.291 51.3954C171.279 52.0931 172.442 52.7326 173.837 53.1396C175.174 53.6047 176.744 53.7791 178.488 53.7791C180.407 53.7791 182.209 53.4303 183.779 52.8489C185.349 52.2675 186.744 51.3372 187.849 50.1744C188.953 49.0117 189.884 47.5582 190.523 45.9303C191.163 44.3024 191.453 42.3837 191.453 40.3489V17.4419H187.209C186.105 17.4419 185.233 18.314 185.233 19.4186L185.291 20.1163ZM184.767 32.3256C184.419 33.1977 183.895 33.8954 183.314 34.4186C182.674 35 181.977 35.407 181.221 35.7558C180.407 36.0465 179.593 36.1628 178.837 36.1628C178.081 36.1628 177.209 36.0465 176.512 35.7558C175.756 35.4651 175.058 35 174.419 34.4186C173.779 33.8372 173.314 33.1396 172.965 32.3256C172.616 31.4535 172.384 30.5233 172.384 29.4768C172.384 28.4303 172.558 27.3837 172.965 26.5698C173.314 25.6977 173.837 25 174.419 24.4186C175.058 23.7791 175.698 23.3721 176.512 23.0814C177.267 22.7907 178.081 22.6744 178.837 22.6744C179.593 22.6744 180.465 22.7907 181.221 23.0814C182.035 23.3721 182.733 23.8372 183.314 24.4186C183.953 25 184.419 25.6977 184.767 26.5698C185.116 27.4419 185.349 28.4303 185.349 29.4768C185.291 30.4651 185.174 31.4535 184.767 32.3256Z" fill="white"/>
<path d="M218.14 20.3489C216.977 19.1861 215.581 18.2558 214.012 17.6163C212.384 16.9768 210.698 16.6279 208.721 16.6279C206.744 16.6279 205.058 16.9768 203.43 17.6163C201.802 18.2558 200.465 19.1861 199.302 20.3489C198.14 21.5117 197.209 22.907 196.57 24.4768C195.93 26.1047 195.581 27.8489 195.581 29.7675C195.581 31.6861 195.93 33.4303 196.57 35.0582C197.209 36.6861 198.14 38.0814 199.302 39.1861C200.465 40.3489 201.86 41.2791 203.43 41.9186C205.058 42.5582 206.744 42.907 208.721 42.907C210.698 42.907 212.384 42.5582 214.012 41.9186C215.64 41.2791 216.977 40.3489 218.14 39.1861C219.302 38.0233 220.233 36.6279 220.872 35.0582C221.512 33.4303 221.86 31.6861 221.86 29.7675C221.86 27.8489 221.512 26.1047 220.872 24.4768C220.174 22.907 219.244 21.5117 218.14 20.3489ZM214.651 32.7326C214.302 33.6047 213.779 34.3605 213.256 34.9419C212.616 35.5814 211.919 36.0465 211.163 36.2791C210.349 36.6279 209.535 36.7442 208.721 36.7442C207.849 36.7442 207.035 36.6279 206.279 36.2791C205.523 35.9303 204.826 35.4651 204.186 34.9419C203.547 34.3024 203.081 33.6047 202.733 32.7326C202.384 31.8605 202.209 30.8721 202.209 29.7675C202.209 28.6628 202.384 27.6744 202.733 26.8023C203.081 25.9303 203.605 25.1744 204.186 24.593C204.826 23.9535 205.465 23.4884 206.279 23.2558C207.035 22.907 207.907 22.7907 208.721 22.7907C209.535 22.7907 210.349 22.907 211.163 23.2558C211.977 23.6047 212.674 24.0698 213.256 24.593C213.895 25.2326 214.36 25.9303 214.651 26.8023C215 27.6744 215.174 28.6628 215.174 29.7675C215.174 30.9303 215.058 31.9186 214.651 32.7326Z" fill="white"/>
<path d="M232.326 6.04639H225.756V42.0929H232.326V6.04639Z" fill="white"/>
<path d="M241.686 5.6394C241.105 5.6394 240.581 5.75568 240.058 5.98824C239.535 6.2208 239.07 6.5115 238.721 6.86033C238.372 7.20917 238.023 7.73243 237.849 8.19754C237.616 8.7208 237.5 9.24406 237.5 9.82545C237.5 10.465 237.616 10.9882 237.849 11.4534C238.081 11.9766 238.372 12.3836 238.721 12.7906C239.07 13.1394 239.593 13.4882 240.058 13.6627C240.581 13.8952 241.163 14.0115 241.686 14.0115C242.849 14.0115 243.837 13.6045 244.709 12.7906C245.581 11.9766 245.988 10.9301 245.988 9.76731C245.988 8.60452 245.581 7.61615 244.709 6.74406C243.895 6.04638 242.849 5.6394 241.686 5.6394Z" fill="white"/>
<path d="M245 17.4419H238.43V42.0931H245V17.4419Z" fill="white"/>
<path d="M269.535 19.3605C267.5 17.5581 264.593 16.686 260.756 16.686C256.221 16.686 252.674 18.3139 250 21.6279L254.826 24.9418C256.395 23.0232 258.314 22.093 260.64 22.093C262.209 22.093 263.488 22.5 264.477 23.3721C265.523 24.2442 266.046 25.2907 266.046 26.6279V27.3837C265.407 27.093 264.477 26.8605 263.43 26.5698C262.384 26.3372 261.105 26.2209 259.419 26.2209C257.965 26.2209 256.628 26.3953 255.407 26.8023C254.186 27.2093 253.081 27.7325 252.209 28.4884C251.337 29.2442 250.581 30.1163 250.116 31.1046C249.593 32.1512 249.36 33.2558 249.36 34.5349C249.36 35.7558 249.593 36.9186 250.058 37.9651C250.523 39.0116 251.163 39.8837 252.035 40.6395C252.907 41.3953 253.895 41.9767 255 42.3837C256.105 42.7907 257.326 43.0232 258.605 43.0232C260.291 43.0232 261.686 42.6744 262.791 42.0349C263.895 41.3953 264.826 40.5814 265.581 39.6512H265.988V40.1163C265.988 41.2209 266.86 42.093 267.965 42.093H272.5V27.3256C272.5 23.8372 271.512 21.1046 269.535 19.3605ZM265.581 34.2442C265.291 34.9419 264.884 35.5232 264.36 36.1046C263.837 36.6279 263.256 37.0349 262.5 37.3837C261.744 37.7325 260.93 37.8488 260.116 37.8488C259.012 37.8488 258.081 37.5581 257.267 36.9767C256.453 36.3372 256.046 35.5814 256.046 34.593C256.046 33.6046 256.453 32.7325 257.326 32.0349C258.198 31.3372 259.419 30.9884 260.988 30.9884C261.977 30.9884 262.849 31.1046 263.663 31.3372C264.477 31.5698 265.291 31.8605 266.046 32.2093C266.046 32.8488 265.872 33.5465 265.581 34.2442Z" fill="white"/>
<path d="M44.3605 59.186H15.1744C7.15116 59.186 0.639534 52.6163 0.639534 44.593V15.407C0.639534 7.3837 7.2093 0.87207 15.1744 0.87207H44.3605C52.3837 0.87207 58.8953 7.44184 58.8953 15.407V44.593C58.9535 52.6163 52.3837 59.186 44.3605 59.186ZM15.1744 5.11626C9.53488 5.11626 4.94186 9.70928 4.94186 15.3488V44.5349C4.94186 50.1744 9.53488 54.7674 15.1744 54.7674H44.3605C50 54.7674 54.593 50.1744 54.593 44.5349V15.407C54.593 9.76742 50 5.1744 44.3605 5.1744C44.3605 5.11626 15.1744 5.11626 15.1744 5.11626Z" fill="white"/>
<path d="M201.802 51.5116V53.8372H200.523V52.5581H195.64V46.686H196.977V51.5116H199.593V46.686H200.93V51.5116H201.802Z" fill="white"/>
<path d="M207.093 48.0232V52.5581H205.814V52.0349C205.465 52.3837 205 52.6162 204.419 52.6162C204.012 52.6162 203.605 52.5 203.256 52.3256C202.907 52.1511 202.616 51.8604 202.442 51.5116C202.267 51.1628 202.151 50.7558 202.151 50.2907C202.151 49.8256 202.267 49.4186 202.442 49.0697C202.616 48.7209 202.907 48.4302 203.256 48.2558C203.605 48.0814 204.012 47.9651 204.419 47.9651C205 47.9651 205.465 48.1395 205.756 48.5465V48.0814L207.093 48.0232ZM205.465 51.2209C205.698 50.9883 205.814 50.6976 205.814 50.3488C205.814 50 205.698 49.6511 205.465 49.4767C205.233 49.2442 204.942 49.1279 204.651 49.1279C204.302 49.1279 204.012 49.2442 203.779 49.4767C203.546 49.7093 203.488 50 203.488 50.3488C203.488 50.6976 203.605 51.0465 203.837 51.2209C204.07 51.4535 204.36 51.5697 204.709 51.5697C205 51.5697 205.291 51.4535 205.465 51.2209Z" fill="white"/>
<path d="M211.163 52.5581L210.174 51.2209L209.186 52.5581H207.733L209.477 50.2906L207.733 48.0232H209.244L210.233 49.3604L211.221 48.0232H212.616L210.93 50.2325L212.674 52.5581H211.163Z" fill="white"/>
<path d="M217.674 48.0233V52.5581H216.395V52.0349C216.279 52.2093 216.047 52.3837 215.756 52.4419C215.465 52.5 215.233 52.5581 214.942 52.5581C214.302 52.5581 213.837 52.3837 213.547 52.0349C213.198 51.6861 213.023 51.1628 213.023 50.5233V47.9651H214.36V50.2907C214.36 50.9884 214.651 51.3954 215.233 51.3954C215.581 51.3954 215.814 51.2791 215.988 51.0465C216.163 50.8721 216.279 50.5233 216.279 50.1744V47.907L217.674 48.0233Z" fill="white"/>
<path d="M223.314 52.5581V49.8837L221.977 52.1511H221.453L220.116 49.8837V52.5581H218.895V48.0232H220.349L221.744 50.6976L223.314 48.0232H224.535V52.5581H223.314Z" fill="white"/>
<path d="M230.756 52.6162V54.186H229.477V52.6162L227.5 48.0232H228.895L230.174 51.1627L231.453 48.0232H232.674L230.756 52.6162Z" fill="white"/>
<path d="M233.372 48.0232H234.651V49.8255H236.628V48.0232H237.907V52.5581H236.628V50.872H234.651V52.5581H233.372V48.0232Z" fill="white"/>
<path d="M243.837 48.0232V51.8023C243.837 52.6744 243.605 53.2558 243.198 53.6627C242.791 54.0697 242.151 54.3023 241.337 54.3023C240.93 54.3023 240.465 54.2441 240.116 54.186C239.767 54.0697 239.419 53.8953 239.128 53.7209L239.651 52.7906C239.826 52.9069 240.058 53.0813 240.349 53.1395C240.64 53.1976 240.93 53.2557 241.221 53.2557C241.686 53.2557 242.035 53.1395 242.209 52.9069C242.442 52.7325 242.558 52.3837 242.558 51.9767V51.7441C242.209 52.093 241.744 52.3255 241.163 52.3255C240.756 52.3255 240.349 52.2092 240.058 52.0348C239.709 51.8604 239.419 51.6278 239.244 51.279C239.07 50.9302 238.953 50.5813 238.953 50.1744C238.953 49.7674 239.07 49.3604 239.244 49.0697C239.419 48.779 239.709 48.4883 240.058 48.3139C240.407 48.1395 240.756 48.0232 241.163 48.0232C241.802 48.0232 242.326 48.2558 242.674 48.6627V48.0813L243.837 48.0232ZM242.151 50.9883C242.384 50.8139 242.5 50.5232 242.5 50.1744C242.5 49.8255 242.384 49.5348 242.151 49.3604C241.919 49.186 241.628 49.0116 241.279 49.0116C240.93 49.0116 240.64 49.1278 240.407 49.3604C240.174 49.5348 240.058 49.8255 240.058 50.1744C240.058 50.5232 240.174 50.8139 240.407 50.9883C240.64 51.1627 240.93 51.3371 241.279 51.3371C241.628 51.279 241.919 51.2209 242.151 50.9883Z" fill="white"/>
<path d="M247.849 48.3138C248.198 48.4882 248.547 48.7789 248.721 49.1859C248.953 49.5348 249.07 49.9417 249.07 50.4068C249.07 50.872 248.953 51.2789 248.721 51.6278C248.488 51.9766 248.198 52.2673 247.849 52.4999C247.5 52.6743 247.035 52.7906 246.512 52.7906C246.105 52.7906 245.64 52.6743 245.349 52.558C245 52.4417 244.709 52.2092 244.477 51.9185L245.233 51.2208C245.581 51.5696 245.988 51.7441 246.453 51.7441C246.802 51.7441 247.093 51.6278 247.326 51.5115C247.558 51.3952 247.674 51.1627 247.791 50.872H245.93V49.9999H247.791C247.674 49.7092 247.558 49.5348 247.326 49.3603C247.093 49.2441 246.802 49.1278 246.453 49.1278C245.988 49.1278 245.581 49.3022 245.233 49.651L244.477 48.9534C244.709 48.6627 245 48.4882 245.349 48.3138C245.698 48.1975 246.105 48.0813 246.512 48.0813C247.035 47.965 247.5 48.0813 247.849 48.3138Z" fill="white"/>
<path d="M250.814 52.3256C250.465 52.1512 250.116 51.8605 249.942 51.4535C249.709 51.1047 249.593 50.6977 249.593 50.2326C249.593 49.7675 249.709 49.3605 249.942 49.0117C250.174 48.6628 250.465 48.3721 250.814 48.1396C251.163 47.9652 251.628 47.8489 252.151 47.8489C252.616 47.8489 253.023 47.9652 253.43 48.1396C253.779 48.314 254.07 48.6047 254.244 49.0117L253.198 49.5931C252.965 49.1861 252.616 48.9535 252.151 48.9535C251.802 48.9535 251.512 49.0698 251.279 49.3024C251.047 49.5349 250.93 49.8256 250.93 50.1745C250.93 50.5233 251.047 50.8721 251.279 51.0466C251.512 51.2791 251.802 51.3954 252.151 51.3954C252.616 51.3954 252.965 51.221 253.198 50.7559L254.244 51.3372C254.128 51.6861 253.837 51.9768 253.43 52.2093C253.081 52.3838 252.674 52.5 252.151 52.5C251.628 52.6745 251.221 52.5582 250.814 52.3256Z" fill="white"/>
<path d="M262.093 48.4883C262.442 48.8372 262.616 49.3604 262.616 50V52.6162H261.279V50.2325C261.279 49.8837 261.163 49.593 261.046 49.4186C260.93 49.2442 260.698 49.1279 260.407 49.1279C260.058 49.1279 259.826 49.2442 259.651 49.4186C259.477 49.593 259.36 49.9418 259.36 50.2907V52.5581H258.023V50.1744C258.023 49.4767 257.733 49.0697 257.151 49.0697C256.86 49.0697 256.57 49.186 256.453 49.3604C256.279 49.5349 256.163 49.8837 256.163 50.2325V52.5H254.826V47.9651H256.105V48.4883C256.279 48.3139 256.453 48.1395 256.744 48.0814C257.035 48.0232 257.267 47.9651 257.558 47.9651C257.907 47.9651 258.198 48.0232 258.43 48.1395C258.721 48.2558 258.895 48.4883 259.07 48.7209C259.244 48.4883 259.477 48.3139 259.767 48.1395C260.058 48.0232 260.407 47.9651 260.698 47.9651C261.337 48.0232 261.744 48.1395 262.093 48.4883Z" fill="white"/>
<path d="M266.57 48.3138C266.919 48.4882 267.267 48.7789 267.442 49.1859C267.674 49.5348 267.791 49.9417 267.791 50.4068C267.791 50.872 267.674 51.2789 267.442 51.6278C267.209 51.9766 266.919 52.2673 266.57 52.4999C266.221 52.6743 265.756 52.7906 265.233 52.7906C264.826 52.7906 264.36 52.6743 264.07 52.558C263.721 52.4417 263.43 52.2092 263.198 51.9185L263.953 51.2208C264.302 51.5696 264.709 51.7441 265.174 51.7441C265.523 51.7441 265.814 51.6278 266.047 51.5115C266.279 51.3952 266.395 51.1627 266.512 50.872H264.651V49.9999H266.512C266.395 49.7092 266.279 49.5348 266.047 49.3603C265.814 49.2441 265.523 49.1278 265.174 49.1278C264.709 49.1278 264.302 49.3022 263.953 49.651L263.198 48.9534C263.43 48.6627 263.721 48.4882 264.07 48.3138C264.419 48.1394 264.826 48.0813 265.233 48.0813C265.756 47.965 266.163 48.0813 266.57 48.3138Z" fill="white"/>
<path d="M268.721 48.0232H270V49.8255H271.977V48.0232H273.256V52.5581H271.977V50.872H270V52.5581H268.721V48.0232Z" fill="white"/>
</g>
<defs>
<clipPath id="clip0_126_1170">
<rect width="273.895" height="60" fill="white"/>
</clipPath>
</defs>
</svg>
