<svg width="59" height="120" viewBox="0 0 59 120" fill="none" xmlns="http://www.w3.org/2000/svg">
<g clip-path="url(#clip0_126_1351)">
<path d="M29.3327 48.0017C22.7755 48.0017 17.1436 44.0578 14.6717 38.4126C14.6717 38.4979 14.6663 38.5833 14.6663 38.6686C14.6663 46.7697 21.2315 53.3349 29.3327 53.3349C37.4338 53.3349 43.999 46.7697 43.999 38.6686C43.999 38.5833 43.9937 38.4979 43.9937 38.4126C41.5217 44.0578 35.8899 48.0017 29.3327 48.0017Z" fill="#FFD300"/>
<path d="M29.3327 45.3351C35.2236 45.3351 39.9991 40.5595 39.9991 34.6686C39.9991 28.7777 35.2236 24.0022 29.3327 24.0022C23.4418 24.0022 18.6663 28.7777 18.6663 34.6686C18.6663 40.5595 23.4418 45.3351 29.3327 45.3351Z" fill="#FFD300"/>
<path d="M30.4527 0.00268555C29.1274 0.605339 28.6314 1.68798 28.5247 2.76796C28.458 3.67727 28.8607 4.70125 28.898 5.59189C28.898 7.12253 27.3141 7.62652 27.3141 9.81047C27.3141 10.5625 28.0074 11.3891 28.0074 13.3357C27.8874 14.357 27.3167 14.589 26.6741 14.669C25.9381 14.669 25.3408 14.0717 25.3408 13.3357C25.3408 12.9944 25.4741 12.6664 25.7088 12.4184C25.7514 12.3704 25.7968 12.3251 25.8448 12.2851C26.1488 11.9784 26.5674 11.8584 26.5647 11.0504C26.5647 10.6344 26.2954 10.2558 26.0368 9.51981C25.7941 8.80516 25.9701 7.61052 26.5461 6.90386C25.6128 7.26386 25.0368 8.15984 24.7435 8.96249C24.4341 9.94913 24.7035 10.5171 24.2795 11.3384C24.0208 11.8691 23.7141 12.0904 23.4208 12.5304C23.0768 13.0131 22.6688 14.141 22.6688 14.6664C22.6688 18.3489 25.6528 21.3329 29.3354 21.3329C33.0179 21.3329 36.0019 18.3489 36.0019 14.6664C36.0019 14.1437 35.6019 13.0131 35.2579 12.5304C34.9646 12.0878 34.6526 11.8664 34.3939 11.3384C33.9752 10.5198 34.2446 9.94913 33.9352 8.96249C33.6419 8.15984 33.0659 7.26652 32.1326 6.90653C32.7086 7.61052 32.8846 8.80516 32.6419 9.52247C32.3833 10.2585 32.1113 10.6371 32.1113 11.0531C32.1113 11.8638 32.5246 11.9811 32.8313 12.2877C32.8793 12.3277 32.9246 12.3731 32.9673 12.4211C33.2046 12.6691 33.3353 12.9971 33.3353 13.3384C33.3353 14.0744 32.7379 14.6717 32.002 14.6717C31.266 14.5784 30.7353 14.2344 30.6687 13.3384C30.6687 10.7704 31.7673 10.6078 31.7673 8.70916C31.7673 5.99722 29.3354 4.71191 29.3354 2.73062C29.3354 2.05864 29.4927 0.914665 30.4447 0.00268555H30.4527ZM0 56.0014H13.333V120H0V56.0014ZM45.3323 56.0014H58.6654V120H45.3323V56.0014ZM15.9996 56.0014H42.6657L29.3327 64.0013L15.9996 56.0014ZM15.9996 66.6679H42.6657V72.0011H15.9996V66.6679ZM15.9996 104H42.6657V109.334H15.9996V104ZM15.9996 112H42.6657L29.3327 120L15.9996 112Z" fill="#FFD300"/>
<path d="M21.4662 95.0673C21.4662 90.7234 24.9888 87.2008 29.3327 87.2008C32.7939 87.2008 35.5992 84.3955 35.5992 80.9343C35.5992 77.473 32.9673 74.8437 29.6553 74.6757C29.5487 74.6757 29.442 74.6677 29.3327 74.6677C21.9702 74.6677 15.9996 80.6383 15.9996 88.0008C15.9996 93.0726 18.8342 97.4832 23.0021 99.7392C22.0368 98.4325 21.4662 96.8166 21.4662 95.0673ZM29.3327 78.2676C30.8046 78.2676 31.9993 79.4623 31.9993 80.9343C31.9993 82.4062 30.8046 83.6009 29.3327 83.6009C27.8607 83.6009 26.6661 82.4062 26.6661 80.9343C26.6661 79.4623 27.8607 78.2676 29.3327 78.2676Z" fill="#FFD300"/>
<path d="M35.6632 76.2649C36.6285 77.5715 37.1992 79.1875 37.1992 80.9368C37.1992 85.2807 33.6766 88.8033 29.3327 88.8033C25.8714 88.8033 23.0662 91.6085 23.0662 95.0698C23.0662 98.5311 25.6981 101.16 29.01 101.328C29.1167 101.328 29.2234 101.336 29.3327 101.336C36.6952 101.336 42.6657 95.3658 42.6657 88.0033C42.6657 82.9314 39.8311 78.5208 35.6632 76.2649ZM29.3327 97.7364C27.8607 97.7364 26.6661 96.5418 26.6661 95.0698C26.6661 93.5978 27.8607 92.4032 29.3327 92.4032C30.8047 92.4032 31.9993 93.5978 31.9993 95.0698C31.9993 96.5418 30.8047 97.7364 29.3327 97.7364Z" fill="#FFD300"/>
</g>
<defs>
<clipPath id="clip0_126_1351">
<rect width="58.6654" height="120" fill="white"/>
</clipPath>
</defs>
</svg>
