<svg width="88" height="88" viewBox="0 0 88 88" fill="none" xmlns="http://www.w3.org/2000/svg">
<path d="M63.2774 18.7132L63.4941 16.9806L63.7419 14.9998H74.4301C74.6645 14.9998 74.8596 15.1949 74.8596 15.4292V82.5728C74.8596 82.8072 74.6644 83.0023 74.4301 83.0023H14.4295C14.1951 83.0023 14 82.8072 14 82.5728V15.4292C14 15.1949 14.1951 14.9998 14.4295 14.9998H25.1217L25.3789 16.9806L25.3795 16.9852L25.5957 18.7132H21.5725C20.2335 18.7132 19.143 19.8038 19.143 21.1427V76.8571C19.143 78.196 20.2335 79.2866 21.5725 79.2866H54.4306C54.6191 79.2866 54.8111 79.2649 55.0043 79.2172C55.4522 79.1163 55.8424 78.8913 56.1537 78.5801L69.0101 65.7236L69.0144 65.7193C69.315 65.415 69.541 65.03 69.644 64.5883C69.6994 64.381 69.7166 64.1679 69.7166 64.0006V21.1427C69.7166 19.8038 68.626 18.7132 67.2871 18.7132H63.2774Z" stroke="#C0C1C5" stroke-width="2"/>
<path d="M22.9997 75.4298H52.9989V64.0006C52.9989 63.214 53.6417 62.5711 54.4284 62.5711H65.8576V22.5723H61.7871L61.5579 24.4018C61.4005 27.3305 58.9012 29.7152 55.8579 29.7152H33.0017C29.9584 29.7152 27.459 27.3305 27.3017 24.3007L27.0882 22.5723H23.002V75.4298H22.9997ZM30.6574 50.4586L34.8717 45.887C35.1279 45.6015 35.4853 45.4442 35.8719 45.4307C36.272 45.4307 36.6294 45.5588 36.9148 45.8308L42.0866 50.8587L51.43 36.1008C51.6436 35.7434 52.0009 35.5141 52.401 35.4445C52.8146 35.3883 53.2146 35.4872 53.5428 35.7434L58.328 39.643C58.8989 40.0993 59.0135 40.9287 58.6135 41.5423L44.1859 63.3578C43.9566 63.7152 43.5723 63.9445 43.143 63.9872C43.1003 64.0006 43.0441 64.0006 42.9992 64.0006C42.6283 64.0006 42.2709 63.8568 41.999 63.5871L30.6979 52.4433C30.1539 51.8994 30.1404 51.0295 30.6552 50.4586H30.6574Z" fill="#27AE60"/>
<path d="M29.8785 13.8756L29.8121 13.3447L29.8031 13.3401L29.7122 12.6146L29.7065 12.5688L29.7065 12.568C29.7065 11.5492 30.5444 10.7113 31.5632 10.7113H37.434H38.2604L38.4161 9.89966C38.5861 9.01352 38.9628 8.18479 39.5148 7.46097L39.5301 7.44096L39.5443 7.42021C39.678 7.22535 39.8483 7.03928 40.0776 6.79627C41.2626 5.62882 42.8063 4.9978 44.4197 4.9978C46.038 4.9978 47.5858 5.63494 48.7583 6.79276C48.9581 6.99284 49.1386 7.20849 49.3141 7.44706L49.3199 7.45501L49.326 7.46284C49.8866 8.19435 50.2552 9.0254 50.4396 9.91439L50.6049 10.7113H51.4188H57.2761C58.2949 10.7113 59.1329 11.5492 59.1329 12.568L59.1329 12.5688L59.1271 12.6146L58.9698 13.871L58.9698 13.8711L58.255 19.5846L58.255 19.5846L58.2544 19.59L58.0545 21.2607L58.0543 21.2622L58.0173 21.5677H58.0046L57.8973 22.4466L57.7107 23.975L57.7047 24.0245L57.6472 24.082V24.3253L57.585 24.5359L57.601 24.5656L57.5813 24.6142L57.5213 24.6931L57.4983 24.8158L57.4555 24.9173C57.4535 24.9202 57.4487 24.9268 57.4395 24.9377L57.2436 25.1703L57.2359 25.1738L57.2155 25.2037L57.2044 25.2169V25.2199L57.2012 25.2245L56.9482 25.4222V25.4888C56.9219 25.5086 56.8948 25.5279 56.8672 25.5464C56.5709 25.7415 56.2185 25.8517 55.8489 25.8517H32.9927C32.8661 25.8517 32.7689 25.8409 32.707 25.8254L32.6585 25.8133L32.609 25.806C32.5073 25.7912 32.407 25.7625 32.3086 25.7221C32.2071 25.675 32.0992 25.6166 31.9877 25.5512C31.9777 25.5447 31.9671 25.538 31.9557 25.5312L31.9537 25.53C31.9487 25.527 31.9416 25.5227 31.9327 25.5176C31.9269 25.5132 31.921 25.5086 31.9151 25.5039L31.5876 25.1764L31.569 25.1527C31.5685 25.1521 31.568 25.1514 31.5675 25.1507V24.4537H31.2295C31.2264 24.4429 31.2233 24.4317 31.2201 24.4202L31.2193 24.4174C31.209 24.381 31.1977 24.3405 31.1856 24.2987C31.1817 24.28 31.1784 24.2641 31.1747 24.2458C31.1693 24.2193 31.1656 24.1996 31.1629 24.1833C31.1597 24.1637 31.1587 24.1538 31.1584 24.1509V23.7403L31.1083 23.6903L30.9507 22.4459L30.9505 22.4443L30.5933 19.5891L29.8785 13.8756ZM31.1449 24.0984V24.0897C31.1451 24.0984 31.1449 24.1019 31.1449 24.0984ZM40.6846 7.3998L40.6752 7.40906L40.666 7.41856C40.1295 7.97417 39.7068 8.63689 39.443 9.37832L38.9679 10.7135H40.3852H48.4699H49.8871L49.412 9.37831C49.1476 8.63496 48.724 7.97246 48.1752 7.40471L48.1664 7.39561L48.1574 7.38674C46.1387 5.40152 42.7144 5.40612 40.6846 7.3998Z" stroke="#C0C1C5" stroke-width="2"/>
<path d="M63.8437 65.4302H55.8579V73.4138L63.8437 65.4302Z" fill="#27AE60"/>
<path d="M55.514 41.0432L52.9854 38.9866L43.5566 53.8726C43.3273 54.23 42.9565 54.4728 42.5272 54.529C42.0979 54.5717 41.6708 54.4301 41.3561 54.1289L35.9708 48.9009L33.6985 51.3733L42.7699 60.3301L55.5117 41.0432H55.514Z" fill="#27AE60"/>
</svg>
